# xmcd CD database file
#
# Track frame offsets:
#	150
#	1353
#	19561
#	36831
#	53120
#	72344
#	91523
#	105968
#	119399
#	138603
#	153983
#	173182
#	192309
#	213458
#	233640
#	250274
#	269196
#
# Disc length: 3963 seconds
#
# Revision: 0
# Processed by: cddbd v1.5.2PL0 Copyright (c) Steve Scherf et al.
# Submitted via: Feurio! 1.68 - http://www.feurio.com
#
DISCID=e40f7911
DTITLE=Various Artist - Maxximum Power 4
DYEAR=2007
DGENRE=Aerobic - Tae Bo
TTITLE0=Move Ya! - Intro
TTITLE1=Cascada - Everytime We Touch
TTITLE2=Evelyn Thomas - High Energy 2004
TTITLE3=The Real Booty Babes - Since You've Been Gone
TTITLE4=Alex Megane - Little Lies
TTITLE5=C.O. - California
TTITLE6=Here and Now - Bizarre Love Triangles
TTITLE7=Novaspace - So Lonely
TTITLE8=Salou SL - What's Up
TTITLE9=Keira Green - All Out Of Love
TTITLE10=Outatime - Last Night A DJ Saved My Life
TTITLE11=The Real Booty Babes - 4 Ever
TTITLE12=Murphy Brown - I Just Can't Get Enough
TTITLE13=Kadoc - The Nighttrain
TTITLE14=Scooter - Hello (Good To Be Back)
TTITLE15=Neolectric - Secret
TTITLE16=Jason Tyrello - Rainy Sunday
EXTD=150 BPM\r\nCardio: 55:18
EXTT0=
EXTT1=
EXTT2=
EXTT3=
EXTT4=
EXTT5=
EXTT6=
EXTT7=
EXTT8=
EXTT9=
EXTT10=
EXTT11=
EXTT12=
EXTT13=
EXTT14=
EXTT15=
EXTT16=
PLAYORDER=
